<?xml version="1.0" standalone="no"?><!DOCTYPE svg PUBLIC "-//W3C//DTD SVG 1.1//EN" "http://www.w3.org/Graphics/SVG/1.1/DTD/svg11.dtd"><svg t="1695715238278" class="icon" viewBox="0 0 1024 1024" version="1.1" xmlns="http://www.w3.org/2000/svg" p-id="12494" xmlns:xlink="http://www.w3.org/1999/xlink" width="200" height="200"><path d="M332.8 256h362.666667c17.066667 0 29.866667 12.8 29.866666 29.866667 0 17.066667-12.8 34.133333-34.133333 34.133333H332.8c-21.333333 0-34.133333-12.8-34.133333-34.133333 0-17.066667 12.8-29.866667 34.133333-29.866667zM332.8 448h192c17.066667 0 34.133333 12.8 34.133333 34.133333 0 17.066667-12.8 34.133333-34.133333 34.133334H332.8c-21.333333-4.266667-34.133333-17.066667-34.133333-38.4 0-17.066667 12.8-29.866667 34.133333-29.866667z" fill="#2c2c2c" p-id="12495"></path><path d="M844.8 972.8h-320c-46.933333 0-85.333333-38.4-85.333333-85.333333s38.4-85.333333 85.333333-85.333334h85.333333v-21.333333c-38.4-25.6-59.733333-64-64-106.666667v-8.533333c0-76.8 64-140.8 136.533334-140.8s136.533333 64 136.533333 136.533333c0 46.933333-25.6 89.6-64 115.2v21.333334h85.333333c46.933333 0 85.333333 38.4 85.333334 85.333333s-34.133333 89.6-81.066667 89.6z m-324.266667-106.666667c-12.8 0-21.333333 8.533333-21.333333 21.333334s8.533333 21.333333 21.333333 21.333333h320c12.8 0 21.333333-8.533333 21.333334-21.333333s-8.533333-21.333333-21.333334-21.333334H725.333333c-8.533333 0-17.066667-4.266667-21.333333-8.533333s-8.533333-12.8-8.533333-21.333333v-72.533334c0-12.8 8.533333-25.6 17.066666-29.866666a76.501333 76.501333 0 0 0-34.133333-145.066667c-42.666667 0-76.8 34.133333-76.8 76.8v4.266667c0 25.6 17.066667 51.2 42.666667 64 12.8 4.266667 17.066667 17.066667 17.066666 29.866666v72.533334c0 17.066667-12.8 34.133333-34.133333 34.133333h-106.666667z" fill="#2c2c2c" p-id="12496"></path><path d="M256 972.8H170.666667c-42.666667 0-76.8-34.133333-76.8-76.8V128C93.866667 85.333333 128 55.466667 170.666667 55.466667h682.666666c42.666667 0 76.8 34.133333 76.8 76.8v298.666666c0 17.066667-12.8 34.133333-34.133333 34.133334s-34.133333-12.8-34.133333-34.133334V128c0-4.266667-4.266667-8.533333-8.533334-8.533333H170.666667c-4.266667 0-8.533333 4.266667-8.533334 8.533333v768c0 4.266667 4.266667 8.533333 8.533334 8.533333h85.333333c17.066667 0 34.133333 12.8 34.133333 34.133334s-17.066667 34.133333-34.133333 34.133333z" fill="#2c2c2c" p-id="12497"></path></svg>