<?xml version="1.0" standalone="no"?><!DOCTYPE svg PUBLIC "-//W3C//DTD SVG 1.1//EN" "http://www.w3.org/Graphics/SVG/1.1/DTD/svg11.dtd"><svg t="1695715486262" class="icon" viewBox="0 0 1024 1024" version="1.1" xmlns="http://www.w3.org/2000/svg" p-id="15872" xmlns:xlink="http://www.w3.org/1999/xlink" width="200" height="200"><path d="M121.400889 355.157333C69.575111 355.157333 27.363556 311.751111 27.363556 258.275556V176.696889c0-53.475556 42.211556-96.938667 94.037333-96.938667h695.808c51.882667 0 94.094222 43.463111 94.094222 96.938667V258.275556c0 53.418667-42.211556 96.881778-94.094222 96.881777H121.457778z m695.808-227.328H121.457778a48.184889 48.184889 0 0 0-47.388445 48.867556V258.275556c0 26.908444 21.219556 48.810667 47.331556 48.810666h695.808c26.168889 0 47.388444-21.902222 47.388444-48.810666V176.696889a48.184889 48.184889 0 0 0-47.388444-48.867556z" fill="#2c2c2c" p-id="15873"></path><path d="M180.849778 218.908444c0 20.935111 16.440889 37.888 36.750222 37.888a37.319111 37.319111 0 0 0 36.750222-37.888 37.319111 37.319111 0 0 0-36.750222-37.888 37.319111 37.319111 0 0 0-36.750222 37.888zM180.849778 536.917333c0 20.935111 16.440889 37.888 36.750222 37.888a37.319111 37.319111 0 0 0 36.750222-37.888 37.319111 37.319111 0 0 0-36.750222-37.888 37.319111 37.319111 0 0 0-36.750222 37.888zM180.849778 864.824889c0 20.935111 16.440889 37.888 36.750222 37.888a37.319111 37.319111 0 0 0 36.750222-37.888 37.319111 37.319111 0 0 0-36.750222-37.888 37.319111 37.319111 0 0 0-36.750222 37.888z" fill="#2c2c2c" p-id="15874"></path><path d="M372.451556 673.905778H121.457778c-51.882667 0-94.094222-43.463111-94.094222-96.881778V495.388444c0-53.418667 42.211556-96.881778 94.094222-96.881777h695.751111c51.882667 0 94.094222 43.463111 94.094222 96.881777v81.635556a23.722667 23.722667 0 0 1-23.324444 24.007111 23.722667 23.722667 0 0 1-23.324445-24.007111V495.388444a48.184889 48.184889 0 0 0-47.445333-48.810666H121.457778a48.184889 48.184889 0 0 0-47.388445 48.810666v81.635556c0 26.908444 21.219556 48.810667 47.388445 48.810667h250.993778c12.913778 0 23.324444 10.752 23.324444 24.007111a23.722667 23.722667 0 0 1-23.324444 24.064z m-100.750223 327.111111H121.457778c-25.144889 0-48.753778-10.012444-66.56-28.330667a97.735111 97.735111 0 0 1-27.534222-68.494222v-81.635556c0-53.418667 42.211556-96.881778 94.037333-96.881777h150.300444c12.856889 0 23.324444 10.808889 23.324445 24.064a23.722667 23.722667 0 0 1-23.324445 24.007111H121.400889a48.184889 48.184889 0 0 0-47.331556 48.810666v81.635556c0 13.027556 4.892444 25.258667 13.880889 34.474667a46.364444 46.364444 0 0 0 33.450667 14.336h150.300444c12.856889 0 23.324444 10.752 23.324445 24.007111a23.665778 23.665778 0 0 1-23.324445 24.064z" fill="#2c2c2c" p-id="15875"></path><path d="M417.450667 997.262222a124.017778 124.017778 0 0 1-93.127111-41.984 132.323556 132.323556 0 0 1-33.564445-88.462222c0-74.524444 60.984889-134.712889 134.371556-130.275556a23.779556 23.779556 0 0 1 21.902222 25.429334 23.552 23.552 0 0 1-24.689778 22.584889 81.066667 81.066667 0 0 0-4.892444-0.170667c-44.088889 0-79.985778 36.977778-79.985778 82.432 0 42.439111 32.085333 78.506667 72.988444 82.090667 2.275556 0.227556 4.664889 0.341333 6.997334 0.341333 12.856889 0 23.324444 10.752 23.324444 24.007111a23.665778 23.665778 0 0 1-23.324444 24.064z" fill="#2c2c2c" p-id="15876"></path><path d="M423.708444 782.108444a23.608889 23.608889 0 0 1-23.267555-22.186666 133.802667 133.802667 0 0 1-0.398222-10.069334c0-70.542222 55.694222-127.829333 124.131555-127.829333h5.518222c18.602667-0.170667 41.699556-0.341333 60.416 10.752a24.462222 24.462222 0 0 1 8.647112 32.824889 22.983111 22.983111 0 0 1-31.857778 8.874667c-7.793778-4.551111-23.267556-4.551111-36.920889-4.437334h-5.802667c-42.666667 0-77.425778 35.84-77.425778 79.815111 0 2.161778 0.056889 4.266667 0.227556 6.371556a23.836444 23.836444 0 0 1-23.324444 25.884444z" fill="#2c2c2c" p-id="15877"></path><path d="M841.671111 712.704a23.722667 23.722667 0 0 1-23.324444-23.552c-1.479111-63.032889-50.232889-112.355556-110.933334-112.355556-40.106667 0-90.567111 12.856889-103.480889 74.296889a29.582222 29.582222 0 0 1-8.760888 16.554667 23.04 23.04 0 0 1-17.863112 8.533333 23.722667 23.722667 0 0 1-23.324444-24.007111c0-9.784889 2.787556-16.213333 6.542222-20.423111 8.647111-31.971556 26.168889-58.026667 51.143111-75.662222 25.6-18.204444 57.799111-27.420444 95.744-27.420445 41.642667 0 80.839111 16.554667 110.421334 46.648889 26.453333 26.737778 42.666667 61.838222 46.421333 99.669334a25.201778 25.201778 0 0 1 0.967111 15.132444 128.568889 128.568889 0 0 1-0.341333 2.048 23.722667 23.722667 0 0 1-23.210667 20.536889z" fill="#2c2c2c" p-id="15878"></path><path d="M835.128889 998.172444a23.722667 23.722667 0 0 1-23.324445-24.007111c0-13.312 10.467556-24.064 23.324445-24.064 1.649778 0 3.242667 0 4.892444-0.113777 61.781333-2.616889 110.193778-54.613333 110.193778-118.442667 0-63.260444-48.014222-115.256889-109.226667-118.385778a23.893333 23.893333 0 0 1-22.641777-24.462222 23.950222 23.950222 0 0 1 24.348444-23.722667h2.503111c2.844444-0.170667 5.688889 0.227556 8.192 1.024 81.237333 9.329778 143.530667 80.099556 143.530667 165.546667 0 43.292444-16.042667 84.309333-45.169778 115.484444a158.833778 158.833778 0 0 1-116.622222 51.2z" fill="#2c2c2c" p-id="15879"></path><path d="M854.471111 996.977778H416.085333a23.722667 23.722667 0 0 1-23.324444-24.064c0-13.255111 10.467556-24.007111 23.324444-24.007111h438.272c12.913778 0 23.324444 10.752 23.324445 24.007111a23.722667 23.722667 0 0 1-23.324445 24.064z" fill="#2c2c2c" p-id="15880"></path></svg>